<svg height="25.5005" width="19.6899" xmlns="http://www.w3.org/2000/svg"><path d="m0 0h19.6899v25.5005h-19.6899z" opacity="0"/><path d="m14.2822 5.83496c-1.8188 0-3.3081 1.11084-4.2602 1.11084-1.01321 0-2.33157-1.0376-3.91848-1.0376-3.01514 0-6.0668989 2.49024-6.0668989 7.1777 0 2.9297 1.1230489 6.0181 2.5268589 8.0079 1.19629 1.6845 2.24609 3.0639 3.75976 3.0639 1.48926 0 2.14844-.9888 4.00386-.9888 1.8799 0 2.3072.9644 3.9551.9644 1.6358 0 2.7222-1.5015 3.7598-2.9785 1.1475-1.6968 1.6357-3.3447 1.6479-3.4302-.0976-.0244-3.2226-1.3061-3.2226-4.8828 0-3.10059 2.4536-4.49219 2.6001-4.60205-1.6236-2.33155-4.1016-2.40479-4.7852-2.40479zm-.8545-1.97754c.7447-.90332 1.2696-2.13623 1.2696-3.381346 0-.170898-.0122-.341797-.0367-.476074-1.2207.0488281-2.6855.805664-3.5522 1.83105-.6958.78125-1.33057 2.02637-1.33057 3.27149 0 .19531.03662.37842.04883.43945.07324.01221.19534.03662.32954.03662 1.0865 0 2.4537-.73242 3.2715-1.72119z" fill="#fff" fill-opacity=".85"/></svg>