<svg height="30.5441" width="25.7568" xmlns="http://www.w3.org/2000/svg"><path d="m0 0h25.7568v30.5441h-25.7568z" opacity="0"/><g fill="#fff" fill-opacity=".85"><path d="m23.7427 7.28256v18.15184c0 2.5513-1.2696 3.8208-3.7842 3.8208h-8.5309c2.0786-.2909 4.2382-.7224 6.651-1.3916 2.478-.708 3.6133-2.2949 3.6133-5.1391v-17.87114c0-.41417-.0315-.80492-.0961-1.16789 1.428.47627 2.1469 1.67723 2.1469 3.59709z"/><path d="m1.66016 25.056c0 2.124 1.31836 3.2227 3.57666 3.0884 4.10156-.2197 7.72708-.5982 12.39018-1.8799 1.7334-.4883 2.4047-1.4038 2.4047-3.54v-17.87114c0-2.4292-1.3061-3.61328-3.6499-3.06396-3.4179.76904-7.04342 1.37939-11.43795 1.63574-1.97754.12207-3.28369 1.24512-3.28369 3.45459zm1.96533-.354v-17.8711c0-1.02539.63476-1.42822 1.55029-1.47705 4.19922-.21973 7.75142-.83008 11.09622-1.58691 1.1352-.25635 1.7944.32959 1.7944 1.42822v17.45604c0 1.1231-.3784 1.6235-1.3184 1.8677-3.8208 1.062-7.373 1.4526-11.42573 1.6601-1.06202.0489-1.69678-.4882-1.69678-1.477z"/><path d="m6.31104 9.67514c3.45458-.21973 6.23776-.6958 9.08206-1.33057.5615-.12207.6958-.40283.6958-.74463 0-.37841-.293-.708-.8301-.59814-2.71.59814-5.49318 1.08643-8.94776 1.30615-.48829.03662-.70801.32959-.70801.70801 0 .39062.29297.68359.70801.65918zm0 3.93066c3.45458-.2197 6.23776-.708 9.08206-1.3306.5615-.122.6958-.4028.6958-.7446 0-.3784-.293-.708-.8301-.5981-2.71.5981-5.49318 1.0864-8.94776 1.3061-.48829.0366-.70801.3296-.70801.6958 0 .3906.29297.6958.70801.6714zm0 3.9307c3.45458-.2198 6.23776-.708 9.08206-1.3306.5615-.1221.6958-.4028.6958-.7446 0-.3784-.293-.708-.8301-.5982-2.71.5982-5.49318 1.0865-8.94776 1.3062-.48829.0366-.70801.3296-.70801.6958 0 .3906.29297.6958.70801.6714zm0 3.9184c2.00195-.1098 3.33251-.3052 4.65086-.5127.4028-.0732.6226-.3906.6226-.708 0-.3662-.293-.7202-.8423-.6225-1.17189.1831-2.46583.3662-4.43116.476-.48829.0367-.70801.3296-.70801.6958 0 .3907.29297.6958.70801.6714z"/></g></svg>