<svg height="24.1821" width="31.5186" xmlns="http://www.w3.org/2000/svg"><path d="m0 0h31.5186v24.1821h-31.5186z" opacity="0"/><path d="m0 18.2251c0 3.4058 3.05176 5.957 6.78711 5.957 3.72319 0 6.76269-2.5512 6.76269-5.957v-13.48877c0-2.23389-1.5259-3.72315-3.86962-3.72315-1.83106 0-3.2959.92774-3.9795 2.51465l-5.078121 11.81637c-.500489 1.1597-.622559 1.9898-.622559 2.8809zm3.6377-5.2246 3.72314-8.6548c.41504-.97656 1.24512-1.55029 2.24609-1.55029 1.29397 0 2.12407.85449 2.12407 2.13623v9.27736c-1.2207-1.2085-3.02739-1.9409-4.94389-1.9409-1.08643 0-2.19727.2685-3.14941.7324zm-1.7212 5.2246c0-2.4536 2.11182-4.126 4.87061-4.126 2.74658 0 4.93169 1.6724 4.93169 4.126s-2.18511 4.126-4.93169 4.126c-2.75879 0-4.87061-1.6724-4.87061-4.126zm29.2481 0c0-.8911-.1343-1.7212-.6348-2.8809l-5.0659-11.81637c-.6958-1.58691-2.1485-2.51465-3.9795-2.51465-2.3438 0-3.8697 1.48926-3.8697 3.72315v13.48877c0 3.4058 3.0396 5.957 6.7627 5.957 3.7232 0 6.7872-2.5512 6.7872-5.957zm-3.6377-5.2246c-.9522-.4639-2.063-.7324-3.1495-.7324-1.9165 0-3.7353.7324-4.956 1.9409v-9.27736c0-1.28174.8423-2.13623 2.1362-2.13623.9888 0 1.8189.57373 2.2339 1.55029zm1.7089 5.2246c0 2.4536-2.1118 4.126-4.8584 4.126-2.7587 0-4.9316-1.6724-4.9316-4.126s2.1729-4.126 4.9316-4.126c2.7466 0 4.8584 1.6724 4.8584 4.126zm-16.5039-2.7466c.708-.4516 1.7578-.7446 2.8565-.7446 1.355 0 2.2339.2075 2.9297.7202v-1.8188c-.8057-.3418-1.7701-.5005-2.9297-.5005-1.0132 0-2.002.2075-2.8565.5615zm0-3.7231c.708-.4639 1.7578-.7447 2.8565-.7447 1.355 0 2.2339.1954 2.9297.7203v-1.81889c-.8057-.3418-1.7701-.50049-2.9297-.50049-1.0132 0-2.002.20752-2.8565.56152zm0-3.73538c.708-.45166 1.7578-.74463 2.8565-.74463 1.355 0 2.2339.20752 2.9297.72022v-1.80665c-.8057-.34179-1.7701-.51269-2.9297-.51269-1.0132 0-2.002.21973-2.8565.57373z" fill="#fff" fill-opacity=".85"/></svg>