<svg height="23.3032" width="23.6206" xmlns="http://www.w3.org/2000/svg"><path d="m0 0h23.6206v23.3032h-23.6206z" opacity="0"/><path d="m1.12305 9.87549c.64697 0 1.11084-.48828 1.11084-1.13526v-1.02539l-.24414-4.26025 3.21045 3.38135 3.75976 3.78416c.20752.2197.47608.3174.76904.3174.6958 0 1.2085-.4517 1.2085-1.13525 0-.32959-.1099-.62256-.3296-.84229l-3.77196-3.75976-3.38135-3.21045 4.27246.24414h1.01318c.64698 0 1.14747-.45166 1.14747-1.11084 0-.659183-.48829-1.12305-1.14747-1.12305h-6.7749c-1.245115 0-1.96533.720215-1.96533 1.96533v6.7749c0 .63477.476074 1.13526 1.12305 1.13526zm13.39115 13.41551h6.7749c1.2451 0 1.9775-.7202 1.9775-1.9653v-6.7749c0-.6348-.4761-1.1353-1.1353-1.1353-.6347 0-1.1108.4883-1.1108 1.1353v1.0254l.2564 4.2602-3.2227-3.3813-3.7476-3.7842c-.2075-.2197-.4882-.3174-.7812-.3174-.6836 0-1.2085.4517-1.2085 1.1353 0 .3296.1221.6225.3418.8423l3.7598 3.7597 3.3935 3.2105-4.2724-.2442h-1.0254c-.647 0-1.1475.4517-1.1475 1.1109 0 .6591.5005 1.123 1.1475 1.123z" fill="#fff" fill-opacity=".85"/></svg>