<svg height="26.6021" width="27.356" xmlns="http://www.w3.org/2000/svg"><path d="m0 0h27.356v26.6021h-27.356z" opacity="0"/><path d="m13.4888 24.9649c.2929 0 .5859-.0122.8789-.0366l.6836 1.2817c.1465.293.4394.4394.7812.3784.3296-.061.5615-.3052.5982-.647l.2197-1.416c.5615-.1465 1.1108-.354 1.6479-.5859l1.0498.9277c.2442.2197.586.293.9034.1099.2807-.1587.415-.4761.3296-.8179l-.2808-1.3794c.4639-.3418.9277-.7202 1.3428-1.123l1.2939.5371c.3418.1343.6592.0488.9033-.232.1953-.2441.232-.5859.0489-.8789l-.7447-1.2085c.3174-.476.6104-.9887.8789-1.5258l1.4161.0488c.3173.0244.6347-.1465.7324-.4883.1098-.3174 0-.6348-.2564-.8423l-1.0986-.8789c.1465-.5615.2441-1.1474.293-1.7578l1.3305-.4272c.3418-.1099.5616-.3662.5616-.708 0-.354-.2198-.5982-.5616-.7081l-1.3305-.4272c-.0489-.6103-.1465-1.1841-.293-1.7578l1.0986-.89112c.2442-.19532.3662-.50049.2564-.81787-.0977-.3418-.4151-.5127-.7324-.48829l-1.4161.03663c-.2685-.53711-.5615-1.0376-.8789-1.53809l.7447-1.2085c.1709-.26855.1464-.61035-.0489-.85449-.2441-.29297-.5615-.36621-.8911-.23193l-1.3061.51269c-.4151-.37842-.8789-.76904-1.3428-1.11084l.2808-1.36718c.0732-.36622-.0489-.67139-.3296-.81788-.3174-.1831-.6592-.13427-.9034.09766l-1.0498.91553c-.5371-.21973-1.0864-.41504-1.6479-.57373l-.2197-1.403811c-.0367-.341797-.2686-.5859377-.5982-.6469729-.3418-.0610351-.647.0854493-.7812.3662109l-.6836 1.281743c-.293-.02442-.586-.03663-.8789-.03663-.3052 0-.586.01221-.8911.03663l-.6714-1.281743c-.1465-.2807616-.4395-.427246-.7813-.3662109-.3296.0610352-.5371.3051759-.5981.6469729l-.2198 1.391601c-.56148.1709-1.11079.36621-1.66011.58594l-1.0376-.90332c-.25634-.24414-.58593-.29297-.91552-.10987-.26856.14649-.39063.45166-.31739.81788l.26856 1.36718c-.45166.3418-.92774.73242-1.34277 1.11084l-1.29395-.51269c-.32959-.13428-.64697-.06104-.89111.23193-.19532.24414-.23194.58594-.06104.85449l.75684 1.2085c-.31739.50049-.59815 1.00098-.87891 1.53809l-1.41601-.03663c-.32959-.02441-.63477.14649-.732426.48829-.109863.31738-.012207.62255.256346.81787l1.09863.89112c-.14648.5737-.24414 1.1475-.28076 1.7578l-1.354978.4272c-.341797.0977-.524902.3541-.524902.7081s.183105.5981.524902.708l1.354978.4272c.03662.6104.13428 1.1963.28076 1.7578l-1.09863.8789c-.268553.2075-.366209.5249-.256346.8423.097656.3418.402836.5127.732426.4883l1.41601-.0488c.28076.5371.56152 1.0498.87891 1.5258l-.74463 1.2085c-.1709.293-.15869.6348.04883.8789.24414.2808.56152.3663.90332.232l1.28174-.5371c.41503.4028.89111.7812 1.34277 1.123l-.26856 1.3794c-.06103.3418.04883.6592.31739.8179.32959.1831.65918.1098.91552-.1099l1.0376-.9277c.54932.2319 1.09863.4394 1.66011.5981l.2198 1.4038c.061.3418.2685.586.5981.647.3418.061.6348-.0854.7813-.3784l.6714-1.2817c.2929.0244.5859.0366.8911.0366zm0-1.9654c-5.41995 0-9.57034-4.2968-9.57034-9.6923 0-5.40775 4.15039-9.71683 9.57034-9.71683 5.4199 0 9.5947 4.30908 9.5947 9.71683 0 5.3955-4.1748 9.6923-9.5947 9.6923zm-2.1241-11.5722 1.4405-.9155-4.07717-6.99468-1.50147.84229zm4.8462 2.6977h8.1177v-1.6845h-8.1177zm-3.3813 1.9898-1.4282-.9278-4.29691 7.0069 1.48926.8789zm.6348.3906c1.77 0 3.1982-1.416 3.1982-3.186s-1.4282-3.1983-3.1982-3.1983c-1.7701 0-3.1861 1.4283-3.1861 3.1983s1.416 3.186 3.1861 3.186zm0-1.831c-.7691 0-1.3672-.5738-1.3672-1.355 0-.7813.5981-1.3794 1.3672-1.3794.7812 0 1.3794.5981 1.3794 1.3794 0 .7812-.5982 1.355-1.3794 1.355z" fill="#fff" fill-opacity=".85"/></svg>