<svg height="23.2056" width="31.0425" xmlns="http://www.w3.org/2000/svg"><path d="m0 0h31.0425v23.2056h-31.0425z" opacity="0"/><path d="m24.1211 21.2158c3.6865 0 6.5674-2.6977 6.5674-6.0547 0-2.5634-1.4771-4.7851-3.8574-5.7861.0244-5.44434-3.8941-9.375-8.8868-9.375-3.3081 0-5.664 1.77002-7.1289 3.90625-3.0029-.87891-6.27438 1.40381-6.33542 4.82178-2.75879.43945-4.47998 2.90527-4.47998 5.88377 0 3.5889 3.13721 6.604 7.31201 6.604zm0-1.9653h-16.80909c-3.07617 0-5.34668-2.1484-5.34668-4.6387 0-2.4414 1.47705-4.3823 4.06494-4.3823.1709 0 .23194-.0855.23194-.24415 0-3.75976 2.70996-4.8706 5.21239-4.05273.1465.04883.2319.0122.3052-.12207 1.1841-2.11182 3.0029-3.84522 6.1645-3.84522 4.0039 0 6.7749 3.17383 6.9825 6.79932.0366.56152 0 1.2207-.0489 1.79445-.0122.1587.0489.2441.1953.2807 2.2217.4883 3.6499 2.1119 3.6499 4.3213 0 2.2705-2.0019 4.0894-4.602 4.0894z" fill="#fff" fill-opacity=".85"/></svg>