<svg height="18.5669" width="18.7866" xmlns="http://www.w3.org/2000/svg"><path d="m0 0h18.7866v18.5669h-18.7866z" opacity="0"/><g fill="#fff" fill-opacity=".85"><path d="m.183105.976562c0 .537108.451661.988768.988775.988768 8.43505 0 15.29542 6.86035 15.29542 15.29537 0 .5372.4516.9888.9888.9888.5371 0 .9765-.4516.9765-.9888 0-9.50924-7.7514-17.2607-17.26072-17.2607-.537114 0-.988775.439453-.988775.976562z"/><path d="m.183105 6.14014c0 .53711.451661.97656.988775.97656 5.60302 0 10.14402 4.541 10.14402 10.144 0 .5372.4395.9888.9766.9888s.9887-.4516.9887-.9888c0-6.6772-5.43208-12.10933-12.10932-12.10933-.537114 0-.988775.45166-.988775.98877z"/><path d="m.183105 10.9863c0 .5371.451661.9766.988775.9766 2.91748 0 5.29785 2.3804 5.29785 5.2978 0 .5372.43945.9888.97656.9888s.98877-.4516.98877-.9888c0-4.0039-3.27149-7.26314-7.26318-7.26314-.537114 0-.988775.45164-.988775.98874z"/><path d="m1.74561 18.4326c.95214 0 1.72119-.7812 1.72119-1.7212 0-.9643-.75684-1.7334-1.72119-1.7334-.952153 0-1.74561.8057-1.74561 1.77 0 .9034.817871 1.6846 1.74561 1.6846z"/></g></svg>