<svg height="26.8677" width="25" xmlns="http://www.w3.org/2000/svg"><path d="m0 0h25v26.8677h-25z" opacity="0"/><path d="m1.70898 21.1304 9.60692 5.4443c.6836.3906 1.3306.3906 2.0264 0l9.5947-5.4443c1.1231-.6348 1.709-1.2818 1.709-3.0274v-9.66794c0-1.26953-.4639-2.06299-1.4893-2.64893l-8.6425-4.907224c-1.4771-.8422849-2.9053-.8422849-4.3824 0l-8.63034 4.907224c-1.037593.58594-1.50146 1.3794-1.50146 2.64893v9.66794c0 1.7456.598145 2.3926 1.70898 3.0274zm1.09864-1.6114c-.70801-.3906-.95215-.8056-.95215-1.477v-9.21632l9.50923 5.43212v10.1318zm19.04298 0-8.5694 4.8706v-10.1318l9.5093-5.43212v9.21632c0 .6714-.2441 1.0864-.9399 1.477zm-9.5215-6.9702-9.42383-5.33444 3.77198-2.16065 9.42385 5.35889zm5.7373-3.24704-9.46044-5.34668 2.34374-1.33057c.9399-.53711 1.8066-.54931 2.7588 0l8.0444 4.58985z" fill="#fff" fill-opacity=".85"/></svg>