<svg height="26.0376" width="25.3052" xmlns="http://www.w3.org/2000/svg"><path d="m0 0h25.3052v26.0376h-25.3052z" opacity="0"/><g fill="#fff" fill-opacity=".85"><path d="m9.11108 14.4754-6.47436 3.7009c-.04883.0244-.08545.061-.08545.122 0 .0611.03662.0855.08545.1221l9.28958 5.3101c.2075.1098.3784.1709.5493.1709s.3418-.0611.5371-.1709l9.2895-5.3101c.0611-.0366.0977-.061.0977-.1221 0-.061-.0366-.0976-.0977-.122l-6.4693-3.698 2.0408-1.1848 5.6981 3.3081c.9887.5859 1.3794 1.0254 1.3794 1.6967 0 .6714-.3907 1.1109-1.3794 1.6846l-9.5459 5.5542c-.586.3418-1.062.5005-1.5503.5005-.5005 0-.9644-.1587-1.5503-.5005l-9.55811-5.5542c-.988772-.5737-1.36719-1.0132-1.36719-1.6846 0-.6713.378418-1.1108 1.36719-1.6967l5.70539-3.3081z"/><path d="m12.4756 16.0278c.4883 0 .9643-.1587 1.5503-.5005l9.5459-5.54195c.9887-.58594 1.3794-1.02539 1.3794-1.69678 0-.67138-.3907-1.11084-1.3794-1.68457l-9.5459-5.5542c-.586-.341792-1.062-.500484-1.5503-.500484-.5005 0-.9644.158692-1.5503.500484l-9.55811 5.5542c-.988772.57373-1.36719 1.01319-1.36719 1.68457 0 .67139.378418 1.11084 1.36719 1.69678l9.55811 5.54195c.5859.3418 1.0498.5005 1.5503.5005z"/></g></svg>