<svg height="33.0933" width="22.0215" xmlns="http://www.w3.org/2000/svg"><path d="m0 0h22.0215v33.0933h-22.0215z" opacity="0"/><g fill="#fff" fill-opacity=".85"><path d="m21.6675 13.4521v12.1827c0 2.5146-1.2818 3.7841-3.833 3.7841h-14.00149c-2.55127 0-3.83301-1.2695-3.83301-3.7841v-12.1827c0-2.5146 1.28174-3.78413 3.83301-3.78413h3.67431v1.96533h-3.6499c-1.2207 0-1.89209.6592-1.89209 1.9287v11.9629c0 1.2695.67139 1.9287 1.89209 1.9287h13.94048c1.2084 0 1.9042-.6592 1.9042-1.9287v-11.9629c0-1.2695-.6958-1.9287-1.9042-1.9287h-3.6377v-1.96533h3.6743c2.5512 0 3.833 1.26953 3.833 3.78413z"/><path d="m10.8276 19.8608c.5249 0 .9766-.4394.9766-.9521v-12.53663l-.0732-1.83105.8178.86669 1.8555 1.97754c.1709.19532.415.29297.6592.29297.5005 0 .8911-.36621.8911-.8667 0-.25634-.1099-.45166-.293-.63476l-4.126-3.97949c-.2441-.24415-.4516-.32959-.708-.32959-.2441 0-.4516.08544-.708.32959l-4.12595 3.97949c-.1831.1831-.28076.37842-.28076.63476 0 .50049.36621.8667.87891.8667.23193 0 .50049-.09765.67138-.29297l1.84327-1.97754.83007-.86669-.07324 1.83105v12.53663c0 .5127.43942.9521.96432.9521z"/></g></svg>