<svg height="28.5004" width="27.6306" xmlns="http://www.w3.org/2000/svg"><path d="m0 0h27.6306v28.5004h-27.6306z" opacity="0"/><path d="m14.3952 27.1835 11.9018-11.9262c.9155-.9156.9766-1.4405.9766-2.7222v-4.63867c0-1.29395-.3052-1.69678-1.2329-2.62451l-2.8077-2.80762c-.9155-.91553-1.3183-1.23291-2.6123-1.23291h-4.6508c-1.2818 0-1.7945.06103-2.71.97656l-11.93847 11.91405c-1.745609 1.7456-1.78223 3.5523.0122 5.3345l7.72705 7.7148c1.79442 1.7823 3.58892 1.7578 5.33452.0122zm-1.3184-1.477c-.8789.8789-1.8066.8911-2.6978-.0122l-7.58052-7.5684c-.89112-.8911-.87891-1.831-.01221-2.6977l11.85303-11.82865c.2441-.24414.5005-.40283.9155-.40283h5.1392c.3784 0 .6348.14648.8911.40283l3.3325 3.32031c.2564.25635.3906.5127.3906.89112v5.15132c0 .4029-.1464.6592-.3906.9034zm6.1157-14.7095c.9522 0 1.6724-.7446 1.6724-1.67235 0-.93994-.7202-1.67236-1.6724-1.67236-.9643 0-1.6723.73242-1.6723 1.67236 0 .92775.708 1.67235 1.6723 1.67235z" fill="#fff" fill-opacity=".85"/></svg>