<?xml version="1.0" encoding="UTF-8" ?>
<!DOCTYPE svg PUBLIC "-//W3C//DTD SVG 1.1//EN" "http://www.w3.org/Graphics/SVG/1.1/DTD/svg11.dtd">
<svg width="1065pt" height="1065pt" viewBox="0 0 1065 1065" version="1.1" xmlns="http://www.w3.org/2000/svg">
<g id="#ffffffff">
</g>
<g id="#333333ff">
<path fill="#333333" opacity="1.00" d=" M 511.71 0.00 L 555.08 0.00 C 684.02 6.11 810.49 59.48 902.90 149.96 C 906.46 154.46 910.53 158.53 915.03 162.10 C 1006.03 255.09 1059.67 382.52 1065.00 512.32 L 1065.00 555.12 C 1058.88 684.05 1005.51 810.51 915.02 902.92 C 910.53 906.46 906.47 910.53 902.92 915.02 C 810.47 1005.55 683.92 1058.95 554.91 1065.00 L 509.86 1065.00 C 380.94 1058.88 254.48 1005.51 162.09 915.02 C 158.53 910.53 154.47 906.47 149.98 902.92 C 59.36 810.37 5.92 683.66 0.00 554.49 L 0.00 511.70 C 5.53 382.11 59.10 254.94 149.97 162.10 C 154.46 158.53 158.54 154.46 162.10 149.96 C 254.94 59.10 382.12 5.53 511.71 0.00 M 746.62 179.11 C 751.90 196.35 762.54 212.01 768.16 229.22 C 751.09 219.37 734.66 207.61 719.48 194.86 C 717.19 191.82 711.37 186.29 710.27 186.33 C 709.22 209.07 720.66 230.13 720.35 252.98 C 720.32 256.32 720.32 259.67 720.35 263.02 C 719.45 279.73 714.03 295.75 707.01 310.80 C 717.61 319.46 726.36 330.18 736.61 339.22 C 745.77 349.49 756.76 357.89 766.18 367.94 C 797.19 351.86 829.64 331.41 866.02 334.33 C 885.28 336.08 892.62 357.29 908.96 364.56 C 913.40 347.84 909.15 329.59 916.62 313.31 C 905.71 317.16 895.35 322.91 884.23 325.97 C 886.53 302.20 887.01 278.27 885.92 254.40 C 873.59 263.12 864.05 276.64 851.02 284.26 C 852.22 262.71 863.31 241.02 857.51 219.47 C 850.36 217.72 840.88 218.70 833.51 221.49 C 830.09 231.24 831.41 242.56 824.74 251.24 C 824.71 251.28 824.65 251.36 824.62 251.40 C 822.03 255.37 819.02 259.01 815.90 262.56 C 813.06 264.58 810.54 267.04 808.55 269.90 C 803.22 274.34 797.89 278.80 792.18 282.75 C 792.13 282.79 792.03 282.87 791.98 282.92 C 791.50 283.23 790.53 283.87 790.04 284.18 C 789.98 284.21 789.85 284.26 789.79 284.29 C 782.26 289.00 771.38 294.35 763.49 287.52 C 757.21 280.90 760.70 271.08 765.86 264.96 C 775.46 252.69 780.18 237.27 779.40 221.72 C 780.18 221.90 780.11 212.04 779.41 212.30 C 778.93 198.18 779.82 183.69 776.15 169.94 C 766.47 173.51 756.57 176.40 746.62 179.11 M 536.14 338.15 C 498.50 379.79 468.62 427.66 439.36 475.37 C 384.34 568.10 334.36 663.71 287.64 760.85 C 275.35 788.27 255.54 815.61 258.97 847.03 C 259.79 859.05 270.25 868.17 281.98 869.01 C 306.63 870.56 330.02 860.61 352.31 851.30 C 387.16 835.58 419.77 815.41 452.05 795.01 C 524.59 748.62 596.49 699.65 657.30 638.29 C 702.34 594.66 741.23 545.39 781.52 497.42 C 796.97 478.78 791.54 452.05 782.04 431.95 C 770.97 407.13 753.28 385.86 733.04 367.98 C 717.71 354.67 704.92 338.36 689.04 325.79 C 670.99 307.06 646.95 291.14 620.14 290.31 C 586.27 291.75 558.66 314.92 536.14 338.15 Z" />
</g>
<g id="#6de00fff">
<path fill="#6de00f" opacity="1.00" d=" M 149.97 162.10 C 153.91 157.95 157.95 153.90 162.10 149.96 C 158.54 154.46 154.46 158.53 149.97 162.10 Z" />
<path fill="#6de00f" opacity="1.00" d=" M 902.90 149.96 C 907.04 153.90 911.09 157.95 915.03 162.10 C 910.53 158.53 906.46 154.46 902.90 149.96 Z" />
<path fill="#6de00f" opacity="1.00" d=" M 710.27 186.33 C 711.37 186.29 717.19 191.82 719.48 194.86 C 716.12 192.35 713.04 189.47 710.27 186.33 Z" />
<path fill="#6de00f" opacity="1.00" d=" M 779.41 212.30 C 780.11 212.04 780.18 221.90 779.40 221.72 C 779.10 218.58 779.11 215.43 779.41 212.30 Z" />
<path fill="#6de00f" opacity="1.00" d=" M 833.51 221.49 C 840.88 218.70 850.36 217.72 857.51 219.47 C 863.31 241.02 852.22 262.71 851.02 284.26 C 864.05 276.64 873.59 263.12 885.92 254.40 C 887.01 278.27 886.53 302.20 884.23 325.97 C 895.35 322.91 905.71 317.16 916.62 313.31 C 909.15 329.59 913.40 347.84 908.96 364.56 C 892.62 357.29 885.28 336.08 866.02 334.33 C 829.64 331.41 797.19 351.86 766.18 367.94 C 756.76 357.89 745.77 349.49 736.61 339.22 C 754.73 341.23 775.53 342.44 789.87 328.96 C 809.79 310.17 818.74 283.02 825.63 257.23 C 825.56 255.36 827.88 251.24 824.74 251.24 C 831.41 242.56 830.09 231.24 833.51 221.49 Z" />
<path fill="#6de00f" opacity="1.00" d=" M 824.62 251.40 C 824.65 251.36 824.71 251.28 824.74 251.24 C 824.71 251.28 824.65 251.36 824.62 251.40 Z" />
<path fill="#6de00f" opacity="1.00" d=" M 720.35 252.98 C 720.86 256.30 720.87 259.69 720.35 263.02 C 720.32 259.67 720.32 256.32 720.35 252.98 Z" />
<path fill="#6de00f" opacity="1.00" d=" M 808.55 269.90 C 810.54 267.04 813.06 264.58 815.90 262.56 C 813.88 265.41 811.40 267.90 808.55 269.90 Z" />
<path fill="#6de00f" opacity="1.00" d=" M 791.98 282.92 C 792.03 282.87 792.13 282.79 792.18 282.75 C 792.13 282.79 792.03 282.87 791.98 282.92 Z" />
<path fill="#6de00f" opacity="1.00" d=" M 790.04 284.18 C 790.53 283.87 791.50 283.23 791.98 282.92 C 791.50 283.23 790.53 283.87 790.04 284.18 Z" />
<path fill="#6de00f" opacity="1.00" d=" M 789.79 284.29 C 789.85 284.26 789.98 284.21 790.04 284.18 C 789.98 284.21 789.85 284.26 789.79 284.29 Z" />
<path fill="#6de00f" opacity="1.00" d=" M 149.98 902.92 C 154.47 906.47 158.53 910.53 162.09 915.02 C 157.95 911.09 153.91 907.05 149.98 902.92 Z" />
<path fill="#6de00f" opacity="1.00" d=" M 902.92 915.02 C 906.47 910.53 910.53 906.46 915.02 902.92 C 911.09 907.05 907.05 911.08 902.92 915.02 Z" />
</g>
<g id="#80eb10ff">
<path fill="#80eb10" opacity="1.00" d=" M 746.62 179.11 C 756.57 176.40 766.47 173.51 776.15 169.94 C 779.82 183.69 778.93 198.18 779.41 212.30 C 779.11 215.43 779.10 218.58 779.40 221.72 C 780.18 237.27 775.46 252.69 765.86 264.96 C 760.70 271.08 757.21 280.90 763.49 287.52 C 771.38 294.35 782.26 289.00 789.79 284.29 C 789.85 284.26 789.98 284.21 790.04 284.18 C 790.53 283.87 791.50 283.23 791.98 282.92 C 792.03 282.87 792.13 282.79 792.18 282.75 C 797.89 278.80 803.22 274.34 808.55 269.90 C 811.40 267.90 813.88 265.41 815.90 262.56 C 819.02 259.01 822.03 255.37 824.62 251.40 C 824.65 251.36 824.71 251.28 824.74 251.24 C 827.88 251.24 825.56 255.36 825.63 257.23 C 818.74 283.02 809.79 310.17 789.87 328.96 C 775.53 342.44 754.73 341.23 736.61 339.22 C 726.36 330.18 717.61 319.46 707.01 310.80 C 714.03 295.75 719.45 279.73 720.35 263.02 C 720.87 259.69 720.86 256.30 720.35 252.98 C 720.66 230.13 709.22 209.07 710.27 186.33 C 713.04 189.47 716.12 192.35 719.48 194.86 C 734.66 207.61 751.09 219.37 768.16 229.22 C 762.54 212.01 751.90 196.35 746.62 179.11 Z" />
</g>
<g id="#f76110ff">
<path fill="#f76110" opacity="1.00" d=" M 536.14 338.15 C 558.66 314.92 586.27 291.75 620.14 290.31 C 646.95 291.14 670.99 307.06 689.04 325.79 C 708.68 388.19 691.71 456.00 658.78 510.70 C 654.56 517.07 651.31 527.51 641.63 525.64 C 615.67 519.32 595.48 500.38 575.97 483.24 C 573.78 484.70 572.07 486.73 570.33 488.68 C 568.31 490.13 565.38 491.32 565.37 494.25 C 586.09 514.19 609.95 534.04 638.58 540.85 C 613.47 577.57 581.34 608.89 548.43 638.56 C 520.83 640.63 497.01 621.48 477.30 604.30 C 472.37 597.62 466.37 591.65 459.71 586.70 C 455.94 583.07 452.63 579.01 449.01 575.24 C 444.71 577.88 441.01 581.42 437.37 584.89 C 440.83 590.97 446.53 595.22 450.96 600.51 C 453.20 605.09 456.92 608.77 461.48 611.04 C 480.69 629.76 503.47 646.21 529.77 653.01 C 502.47 678.56 471.08 700.27 438.58 718.91 C 423.53 727.54 399.57 727.32 391.85 709.10 C 389.59 699.92 380.63 709.29 375.25 710.76 C 379.55 721.61 387.70 731.36 398.42 736.26 C 399.81 739.93 395.11 740.55 392.75 741.84 C 359.53 754.89 323.51 764.56 287.64 760.85 C 334.36 663.71 384.34 568.10 439.36 475.37 C 468.62 427.66 498.50 379.79 536.14 338.15 Z" />
</g>
<g id="#ef6110ff">
<path fill="#ef6110" opacity="1.00" d=" M 689.04 325.79 C 704.92 338.36 717.71 354.67 733.04 367.98 C 753.28 385.86 770.97 407.13 782.04 431.95 C 791.54 452.05 796.97 478.78 781.52 497.42 C 741.23 545.39 702.34 594.66 657.30 638.29 C 596.49 699.65 524.59 748.62 452.05 795.01 C 419.77 815.41 387.16 835.58 352.31 851.30 C 330.02 860.61 306.63 870.56 281.98 869.01 C 270.25 868.17 259.79 859.05 258.97 847.03 C 255.54 815.61 275.35 788.27 287.64 760.85 C 323.51 764.56 359.53 754.89 392.75 741.84 C 395.11 740.55 399.81 739.93 398.42 736.26 C 413.53 742.74 431.60 740.39 445.72 732.49 C 444.86 727.40 441.06 723.33 438.58 718.91 C 471.08 700.27 502.47 678.56 529.77 653.01 C 537.64 654.04 545.99 656.47 553.74 653.64 C 552.62 648.46 551.74 642.87 548.43 638.56 C 581.34 608.89 613.47 577.57 638.58 540.85 C 656.92 545.60 677.46 533.54 680.88 514.69 C 676.04 513.44 671.00 511.79 665.97 512.45 C 662.80 522.57 651.93 528.65 641.63 525.64 C 651.31 527.51 654.56 517.07 658.78 510.70 C 691.71 456.00 708.68 388.19 689.04 325.79 Z" />
<path fill="#ef6110" opacity="1.00" d=" M 565.37 494.25 C 565.38 491.32 568.31 490.13 570.33 488.68 C 568.81 490.65 567.13 492.49 565.37 494.25 Z" />
<path fill="#ef6110" opacity="1.00" d=" M 459.71 586.70 C 466.37 591.65 472.37 597.62 477.30 604.30 C 470.81 599.13 464.87 593.19 459.71 586.70 Z" />
<path fill="#ef6110" opacity="1.00" d=" M 450.96 600.51 C 454.72 603.76 458.23 607.28 461.48 611.04 C 456.92 608.77 453.20 605.09 450.96 600.51 Z" />
</g>
<g id="#c22500ff">
<path fill="#c22500" opacity="1.00" d=" M 570.33 488.68 C 572.07 486.73 573.78 484.70 575.97 483.24 C 595.48 500.38 615.67 519.32 641.63 525.64 C 651.93 528.65 662.80 522.57 665.97 512.45 C 671.00 511.79 676.04 513.44 680.88 514.69 C 677.46 533.54 656.92 545.60 638.58 540.85 C 609.95 534.04 586.09 514.19 565.37 494.25 C 567.13 492.49 568.81 490.65 570.33 488.68 Z" />
<path fill="#c22500" opacity="1.00" d=" M 437.37 584.89 C 441.01 581.42 444.71 577.88 449.01 575.24 C 452.63 579.01 455.94 583.07 459.71 586.70 C 464.87 593.19 470.81 599.13 477.30 604.30 C 497.01 621.48 520.83 640.63 548.43 638.56 C 551.74 642.87 552.62 648.46 553.74 653.64 C 545.99 656.47 537.64 654.04 529.77 653.01 C 503.47 646.21 480.69 629.76 461.48 611.04 C 458.23 607.28 454.72 603.76 450.96 600.51 C 446.53 595.22 440.83 590.97 437.37 584.89 Z" />
<path fill="#c22500" opacity="1.00" d=" M 375.25 710.76 C 380.63 709.29 389.59 699.92 391.85 709.10 C 399.57 727.32 423.53 727.54 438.58 718.91 C 441.06 723.33 444.86 727.40 445.72 732.49 C 431.60 740.39 413.53 742.74 398.42 736.26 C 387.70 731.36 379.55 721.61 375.25 710.76 Z" />
</g>
</svg>
