<svg height="1065pt" viewBox="0 0 1065 1065" width="1065pt" xmlns="http://www.w3.org/2000/svg"><path d="m511.71 0h43.37c128.94 6.11 255.41 59.48 347.82 149.96 3.56 4.5 7.63 8.57 12.13 12.14 91 92.99 144.64 220.42 149.97 350.22v42.8c-6.12 128.93-59.49 255.39-149.98 347.8-4.49 3.54-8.55 7.61-12.1 12.1-92.45 90.53-219 143.93-348.01 149.98h-45.05c-128.92-6.12-255.38-59.49-347.77-149.98-3.56-4.49-7.62-8.55-12.11-12.1-90.62-92.55-144.06-219.26-149.98-348.43v-42.79c5.53-129.59 59.1-256.76 149.97-349.6 4.49-3.57 8.57-7.64 12.13-12.14 92.84-90.86 220.02-144.43 349.61-149.96m234.91 179.11c5.28 17.24 15.92 32.9 21.54 50.11-17.07-9.85-33.5-21.61-48.68-34.36-2.29-3.04-8.11-8.57-9.21-8.53-1.05 22.74 10.39 43.8 10.08 66.65-.03 3.34-.03 6.69 0 10.04-.9 16.71-6.32 32.73-13.34 47.78 10.6 8.66 19.35 19.38 29.6 28.42 9.16 10.27 20.15 18.67 29.57 28.72 31.01-16.08 63.46-36.53 99.84-33.61 19.26 1.75 26.6 22.96 42.94 30.23 4.44-16.72.19-34.97 7.66-51.25-10.91 3.85-21.27 9.6-32.39 12.66 2.3-23.77 2.78-47.7 1.69-71.57-12.33 8.72-21.87 22.24-34.9 29.86 1.2-21.55 12.29-43.24 6.49-64.79-7.15-1.75-16.63-.77-24 2.02-3.42 9.75-2.1 21.07-8.77 29.75-.03.04-.09.12-.12.16-2.59 3.97-5.6 7.61-8.72 11.16-2.84 2.02-5.36 4.48-7.35 7.34-5.33 4.44-10.66 8.9-16.37 12.85-.05.04-.15.12-.2.17-.48.31-1.45.95-1.94 1.26-.06.03-.19.08-.25.11-7.53 4.71-18.41 10.06-26.3 3.23-6.28-6.62-2.79-16.44 2.37-22.56 9.6-12.27 14.32-27.69 13.54-43.24.78.18.71-9.68.01-9.42-.48-14.12.41-28.61-3.26-42.36-9.68 3.57-19.58 6.46-29.53 9.17m-210.48 159.04c-37.64 41.64-67.52 89.51-96.78 137.22-55.02 92.73-105 188.34-151.72 285.48-12.29 27.42-32.1 54.76-28.67 86.18.82 12.02 11.28 21.14 23.01 21.98 24.65 1.55 48.04-8.4 70.33-17.71 34.85-15.72 67.46-35.89 99.74-56.29 72.54-46.39 144.44-95.36 205.25-156.72 45.04-43.63 83.93-92.9 124.22-140.87 15.45-18.64 10.02-45.37.52-65.47-11.07-24.82-28.76-46.09-49-63.97-15.33-13.31-28.12-29.62-44-42.19-18.05-18.73-42.09-34.65-68.9-35.48-33.87 1.44-61.48 24.61-84 47.84z" fill="#333"/><g fill="#6de00f"><path d="m149.97 162.1c3.94-4.15 7.98-8.2 12.13-12.14-3.56 4.5-7.64 8.57-12.13 12.14z"/><path d="m902.9 149.96c4.14 3.94 8.19 7.99 12.13 12.14-4.5-3.57-8.57-7.64-12.13-12.14z"/><path d="m710.27 186.33c1.1-.04 6.92 5.49 9.21 8.53-3.36-2.51-6.44-5.39-9.21-8.53z"/><path d="m779.41 212.3c.7-.26.77 9.6-.01 9.42-.3-3.14-.29-6.29.01-9.42z"/><path d="m833.51 221.49c7.37-2.79 16.85-3.77 24-2.02 5.8 21.55-5.29 43.24-6.49 64.79 13.03-7.62 22.57-21.14 34.9-29.86 1.09 23.87.61 47.8-1.69 71.57 11.12-3.06 21.48-8.81 32.39-12.66-7.47 16.28-3.22 34.53-7.66 51.25-16.34-7.27-23.68-28.48-42.94-30.23-36.38-2.92-68.83 17.53-99.84 33.61-9.42-10.05-20.41-18.45-29.57-28.72 18.12 2.01 38.92 3.22 53.26-10.26 19.92-18.79 28.87-45.94 35.76-71.73-.07-1.87 2.25-5.99-.89-5.99 6.67-8.68 5.35-20 8.77-29.75z"/><path d="m824.62 251.4c.03-.04.09-.12.12-.16-.03.04-.09.12-.12.16z"/><path d="m720.35 252.98c.51 3.32.52 6.71 0 10.04-.03-3.35-.03-6.7 0-10.04z"/><path d="m808.55 269.9c1.99-2.86 4.51-5.32 7.35-7.34-2.02 2.85-4.5 5.34-7.35 7.34z"/><path d="m791.98 282.92c.05-.05.15-.13.2-.17-.05.04-.15.12-.2.17z"/><path d="m790.04 284.18c.49-.31 1.46-.95 1.94-1.26-.48.31-1.45.95-1.94 1.26z"/><path d="m789.79 284.29c.06-.03.19-.08.25-.11-.06.03-.19.08-.25.11z"/><path d="m149.98 902.92c4.49 3.55 8.55 7.61 12.11 12.1-4.14-3.93-8.18-7.97-12.11-12.1z"/><path d="m902.92 915.02c3.55-4.49 7.61-8.56 12.1-12.1-3.93 4.13-7.97 8.16-12.1 12.1z"/></g><path d="m746.62 179.11c9.95-2.71 19.85-5.6 29.53-9.17 3.67 13.75 2.78 28.24 3.26 42.36-.3 3.13-.31 6.28-.01 9.42.78 15.55-3.94 30.97-13.54 43.24-5.16 6.12-8.65 15.94-2.37 22.56 7.89 6.83 18.77 1.48 26.3-3.23.06-.03.19-.08.25-.11.49-.31 1.46-.95 1.94-1.26.05-.05.15-.13.2-.17 5.71-3.95 11.04-8.41 16.37-12.85 2.85-2 5.33-4.49 7.35-7.34 3.12-3.55 6.13-7.19 8.72-11.16.03-.04.09-.12.12-.16 3.14 0 .82 4.12.89 5.99-6.89 25.79-15.84 52.94-35.76 71.73-14.34 13.48-35.14 12.27-53.26 10.26-10.25-9.04-19-19.76-29.6-28.42 7.02-15.05 12.44-31.07 13.34-47.78.52-3.33.51-6.72 0-10.04.31-22.85-11.13-43.91-10.08-66.65 2.77 3.14 5.85 6.02 9.21 8.53 15.18 12.75 31.61 24.51 48.68 34.36-5.62-17.21-16.26-32.87-21.54-50.11z" fill="#80eb10"/><path d="m536.14 338.15c22.52-23.23 50.13-46.4 84-47.84 26.81.83 50.85 16.75 68.9 35.48 19.64 62.4 2.67 130.21-30.26 184.91-4.22 6.37-7.47 16.81-17.15 14.94-25.96-6.32-46.15-25.26-65.66-42.4-2.19 1.46-3.9 3.49-5.64 5.44-2.02 1.45-4.95 2.64-4.96 5.57 20.72 19.94 44.58 39.79 73.21 46.6-25.11 36.72-57.24 68.04-90.15 97.71-27.6 2.07-51.42-17.08-71.13-34.26-4.93-6.68-10.93-12.65-17.59-17.6-3.77-3.63-7.08-7.69-10.7-11.46-4.3 2.64-8 6.18-11.64 9.65 3.46 6.08 9.16 10.33 13.59 15.62 2.24 4.58 5.96 8.26 10.52 10.53 19.21 18.72 41.99 35.17 68.29 41.97-27.3 25.55-58.69 47.26-91.19 65.9-15.05 8.63-39.01 8.41-46.73-9.81-2.26-9.18-11.22.19-16.6 1.66 4.3 10.85 12.45 20.6 23.17 25.5 1.39 3.67-3.31 4.29-5.67 5.58-33.22 13.05-69.24 22.72-105.11 19.01 46.72-97.14 96.7-192.75 151.72-285.48 29.26-47.71 59.14-95.58 96.78-137.22z" fill="#f76110"/><path d="m689.04 325.79c15.88 12.57 28.67 28.88 44 42.19 20.24 17.88 37.93 39.15 49 63.97 9.5 20.1 14.93 46.83-.52 65.47-40.29 47.97-79.18 97.24-124.22 140.87-60.81 61.36-132.71 110.33-205.25 156.72-32.28 20.4-64.89 40.57-99.74 56.29-22.29 9.31-45.68 19.26-70.33 17.71-11.73-.84-22.19-9.96-23.01-21.98-3.43-31.42 16.38-58.76 28.67-86.18 35.87 3.71 71.89-5.96 105.11-19.01 2.36-1.29 7.06-1.91 5.67-5.58 15.11 6.48 33.18 4.13 47.3-3.77-.86-5.09-4.66-9.16-7.14-13.58 32.5-18.64 63.89-40.35 91.19-65.9 7.87 1.03 16.22 3.46 23.97.63-1.12-5.18-2-10.77-5.31-15.08 32.91-29.67 65.04-60.99 90.15-97.71 18.34 4.75 38.88-7.31 42.3-26.16-4.84-1.25-9.88-2.9-14.91-2.24-3.17 10.12-14.04 16.2-24.34 13.19 9.68 1.87 12.93-8.57 17.15-14.94 32.93-54.7 49.9-122.51 30.26-184.91z" fill="#ef6110"/><path d="m565.37 494.25c.01-2.93 2.94-4.12 4.96-5.57-1.52 1.97-3.2 3.81-4.96 5.57z" fill="#ef6110"/><path d="m459.71 586.7c6.66 4.95 12.66 10.92 17.59 17.6-6.49-5.17-12.43-11.11-17.59-17.6z" fill="#ef6110"/><path d="m450.96 600.51c3.76 3.25 7.27 6.77 10.52 10.53-4.56-2.27-8.28-5.95-10.52-10.53z" fill="#ef6110"/><path d="m570.33 488.68c1.74-1.95 3.45-3.98 5.64-5.44 19.51 17.14 39.7 36.08 65.66 42.4 10.3 3.01 21.17-3.07 24.34-13.19 5.03-.66 10.07.99 14.91 2.24-3.42 18.85-23.96 30.91-42.3 26.16-28.63-6.81-52.49-26.66-73.21-46.6 1.76-1.76 3.44-3.6 4.96-5.57z" fill="#c22500"/><path d="m437.37 584.89c3.64-3.47 7.34-7.01 11.64-9.65 3.62 3.77 6.93 7.83 10.7 11.46 5.16 6.49 11.1 12.43 17.59 17.6 19.71 17.18 43.53 36.33 71.13 34.26 3.31 4.31 4.19 9.9 5.31 15.08-7.75 2.83-16.1.4-23.97-.63-26.3-6.8-49.08-23.25-68.29-41.97-3.25-3.76-6.76-7.28-10.52-10.53-4.43-5.29-10.13-9.54-13.59-15.62z" fill="#c22500"/><path d="m375.25 710.76c5.38-1.47 14.34-10.84 16.6-1.66 7.72 18.22 31.68 18.44 46.73 9.81 2.48 4.42 6.28 8.49 7.14 13.58-14.12 7.9-32.19 10.25-47.3 3.77-10.72-4.9-18.87-14.65-23.17-25.5z" fill="#c22500"/></svg>