<svg height="512" viewBox="0 0 24 24" width="512" xmlns="http://www.w3.org/2000/svg"><path d="m12 0a12 12 0 1 0 12 12 12.013 12.013 0 0 0 -12-12zm8.941 11h-3.478a18.368 18.368 0 0 0 -2.289-7.411 9.013 9.013 0 0 1 5.767 7.411zm-11.256 3h4.63a16.946 16.946 0 0 1 -2.315 5.9 16.938 16.938 0 0 1 -2.315-5.9zm-.132-3a16.246 16.246 0 0 1 2.447-6.9 16.241 16.241 0 0 1 2.447 6.9zm-.727-7.411a18.368 18.368 0 0 0 -2.289 7.411h-3.478a9.013 9.013 0 0 1 5.767-7.411zm-5.594 10.411h3.409a18.906 18.906 0 0 0 2.185 6.411 9.021 9.021 0 0 1 -5.594-6.411zm11.942 6.411a18.884 18.884 0 0 0 2.185-6.411h3.409a9.021 9.021 0 0 1 -5.594 6.411z"/></svg>