<svg height="512" viewBox="0 0 24 24" width="512" xmlns="http://www.w3.org/2000/svg"><circle cx="16" cy="8" r="2"/><circle cx="9" cy="8" r="2"/><circle cx="8" cy="15" r="2"/><path d="m24.036 10.928a12.144 12.144 0 0 0 -11.536-10.92 12 12 0 1 0 -.417 23.992c.338 0 .669-.022 1-.049a1.5 1.5 0 0 0 1.376-1.508l-.03-3.425a2.859 2.859 0 0 1 4.88-2.047l.1.1a2.38 2.38 0 0 0 2.19.644 2.344 2.344 0 0 0 1.701-1.465 11.909 11.909 0 0 0 .736-5.322zm-3.249 3.366a5.86 5.86 0 0 0 -9.359 4.75l.017 1.933a9 9 0 0 1 .637-17.977c.1 0 .212 0 .318.006a9.105 9.105 0 0 1 8.648 8.185 8.964 8.964 0 0 1 -.261 3.103z"/></svg>