<svg height="512" viewBox="0 0 24 24" width="512" xmlns="http://www.w3.org/2000/svg"><path d="m12 0a12 12 0 1 0 12 12 12.013 12.013 0 0 0 -12-12zm.5 20.975v-1.285a4.19 4.19 0 0 0 -4.19-4.19h-.01a3.143 3.143 0 0 1 -2.223-.921l-3.053-3.055a8.985 8.985 0 0 1 13.992-6.992 1.548 1.548 0 0 1 -.913.3h-1.434a1.555 1.555 0 0 0 -1.555 1.558v1.042a1.555 1.555 0 0 1 -1.555 1.555 1.555 1.555 0 0 0 -1.559 1.555v1.042a1.555 1.555 0 0 0 1.555 1.555h4.156a1.555 1.555 0 0 1 1.555 1.555v1.52a1.555 1.555 0 0 0 .456 1.1l.833.833a8.964 8.964 0 0 1 -6.055 2.828z"/></svg>